<mxfile host="app.diagrams.net" modified="2022-10-07T18:37:33.562Z" agent="5.0 (Windows)" etag="j_Jdk8Zz8dA3Y1qTvcCB" version="20.4.0" type="github">
  <diagram id="4bthDYppY-dah1H3mGTE" name="Pagina-1">
    <mxGraphModel dx="2188" dy="1215" grid="1" gridSize="10" guides="1" tooltips="1" connect="1" arrows="1" fold="1" page="1" pageScale="1" pageWidth="827" pageHeight="1169" math="0" shadow="0">
      <root>
        <mxCell id="0" />
        <mxCell id="1" parent="0" />
        <mxCell id="ETShx9Jj8pTSeEwa7h_H-1" value="User" style="swimlane;fontSize=16;fontColor=#00FF00;fillColor=#CCFFFF;" parent="1" vertex="1">
          <mxGeometry x="40" y="40" width="200" height="920" as="geometry" />
        </mxCell>
        <mxCell id="ETShx9Jj8pTSeEwa7h_H-2" value="Queries" style="swimlane;fontSize=14;fontStyle=5" parent="ETShx9Jj8pTSeEwa7h_H-1" vertex="1">
          <mxGeometry y="20" width="200" height="320" as="geometry" />
        </mxCell>
        <mxCell id="ETShx9Jj8pTSeEwa7h_H-18" value="Create" style="swimlane;" parent="ETShx9Jj8pTSeEwa7h_H-2" vertex="1">
          <mxGeometry y="20" width="200" height="70" as="geometry" />
        </mxCell>
        <mxCell id="ETShx9Jj8pTSeEwa7h_H-42" value="Create User" style="text;html=1;strokeColor=none;fillColor=none;align=center;verticalAlign=middle;whiteSpace=wrap;rounded=0;fontSize=14;fontColor=#000000;" parent="ETShx9Jj8pTSeEwa7h_H-18" vertex="1">
          <mxGeometry x="55" y="20" width="90" height="30" as="geometry" />
        </mxCell>
        <mxCell id="ETShx9Jj8pTSeEwa7h_H-19" value="Read" style="swimlane;" parent="ETShx9Jj8pTSeEwa7h_H-2" vertex="1">
          <mxGeometry y="90" width="200" height="90" as="geometry" />
        </mxCell>
        <mxCell id="ETShx9Jj8pTSeEwa7h_H-30" value="&lt;div&gt;GetPassword (?)&lt;/div&gt;" style="text;html=1;align=center;verticalAlign=middle;resizable=0;points=[];autosize=1;strokeColor=none;fillColor=none;fontSize=14;" parent="ETShx9Jj8pTSeEwa7h_H-19" vertex="1">
          <mxGeometry x="35" y="20" width="130" height="30" as="geometry" />
        </mxCell>
        <mxCell id="ETShx9Jj8pTSeEwa7h_H-40" value="GetUser" style="text;html=1;strokeColor=none;fillColor=none;align=center;verticalAlign=middle;whiteSpace=wrap;rounded=0;fontSize=14;fontColor=#000000;" parent="ETShx9Jj8pTSeEwa7h_H-19" vertex="1">
          <mxGeometry x="70" y="40" width="60" height="30" as="geometry" />
        </mxCell>
        <mxCell id="ETShx9Jj8pTSeEwa7h_H-20" value="Update" style="swimlane;" parent="ETShx9Jj8pTSeEwa7h_H-2" vertex="1">
          <mxGeometry y="180" width="200" height="70" as="geometry" />
        </mxCell>
        <mxCell id="ETShx9Jj8pTSeEwa7h_H-39" value="&lt;div&gt;&lt;font color=&quot;#000000&quot;&gt;Update Password&lt;/font&gt;&lt;/div&gt;" style="text;html=1;align=center;verticalAlign=middle;resizable=0;points=[];autosize=1;strokeColor=none;fillColor=none;fontSize=14;fontColor=#00FF00;" parent="ETShx9Jj8pTSeEwa7h_H-20" vertex="1">
          <mxGeometry x="35" y="20" width="130" height="30" as="geometry" />
        </mxCell>
        <mxCell id="ETShx9Jj8pTSeEwa7h_H-21" value="Delete" style="swimlane;" parent="ETShx9Jj8pTSeEwa7h_H-2" vertex="1">
          <mxGeometry y="250" width="200" height="70" as="geometry" />
        </mxCell>
        <mxCell id="ETShx9Jj8pTSeEwa7h_H-3" value="Objects(attributes)" style="swimlane;fontStyle=5;startSize=20;fontSize=14;" parent="ETShx9Jj8pTSeEwa7h_H-1" vertex="1">
          <mxGeometry y="340" width="200" height="581" as="geometry" />
        </mxCell>
        <mxCell id="ETShx9Jj8pTSeEwa7h_H-79" value="Employee : User" style="swimlane;fontSize=14;fontColor=#000000;" parent="ETShx9Jj8pTSeEwa7h_H-3" vertex="1">
          <mxGeometry y="20" width="200" height="320" as="geometry" />
        </mxCell>
        <mxCell id="7pABPfw_jYTxYj795POy-1" value="Username(?) (string)" style="text;html=1;strokeColor=none;fillColor=none;align=center;verticalAlign=middle;whiteSpace=wrap;rounded=0;fontSize=14;fontColor=#000000;" parent="ETShx9Jj8pTSeEwa7h_H-79" vertex="1">
          <mxGeometry x="35" y="30" width="130" height="30" as="geometry" />
        </mxCell>
        <mxCell id="7pABPfw_jYTxYj795POy-2" value="Password (byteArray/string)" style="text;html=1;strokeColor=none;fillColor=none;align=center;verticalAlign=middle;whiteSpace=wrap;rounded=0;fontSize=14;fontColor=#000000;" parent="ETShx9Jj8pTSeEwa7h_H-79" vertex="1">
          <mxGeometry x="-5" y="60" width="210" height="30" as="geometry" />
        </mxCell>
        <mxCell id="7pABPfw_jYTxYj795POy-4" value="First Name (string)" style="text;html=1;strokeColor=none;fillColor=none;align=center;verticalAlign=middle;whiteSpace=wrap;rounded=0;fontSize=14;fontColor=#000000;" parent="ETShx9Jj8pTSeEwa7h_H-79" vertex="1">
          <mxGeometry x="32.5" y="90" width="135" height="30" as="geometry" />
        </mxCell>
        <mxCell id="7pABPfw_jYTxYj795POy-5" value="Last Name (string)" style="text;html=1;strokeColor=none;fillColor=none;align=center;verticalAlign=middle;whiteSpace=wrap;rounded=0;fontSize=14;fontColor=#000000;" parent="ETShx9Jj8pTSeEwa7h_H-79" vertex="1">
          <mxGeometry x="35" y="120" width="135" height="30" as="geometry" />
        </mxCell>
        <mxCell id="7pABPfw_jYTxYj795POy-7" value="Role (string)" style="text;html=1;strokeColor=none;fillColor=none;align=center;verticalAlign=middle;whiteSpace=wrap;rounded=0;fontSize=14;fontColor=#000000;" parent="ETShx9Jj8pTSeEwa7h_H-79" vertex="1">
          <mxGeometry x="52.5" y="150" width="95" height="30" as="geometry" />
        </mxCell>
        <mxCell id="7pABPfw_jYTxYj795POy-8" value="Email (string)" style="text;html=1;strokeColor=none;fillColor=none;align=center;verticalAlign=middle;whiteSpace=wrap;rounded=0;fontSize=14;fontColor=#000000;" parent="ETShx9Jj8pTSeEwa7h_H-79" vertex="1">
          <mxGeometry x="52.5" y="180" width="95" height="30" as="geometry" />
        </mxCell>
        <mxCell id="7pABPfw_jYTxYj795POy-10" value="&lt;div&gt;Phonenumber? (int)&lt;/div&gt;" style="text;html=1;strokeColor=none;fillColor=none;align=center;verticalAlign=middle;whiteSpace=wrap;rounded=0;fontSize=14;fontColor=#000000;" parent="ETShx9Jj8pTSeEwa7h_H-79" vertex="1">
          <mxGeometry x="22.5" y="210" width="160" height="30" as="geometry" />
        </mxCell>
        <mxCell id="7pABPfw_jYTxYj795POy-12" value="Location? (string)" style="text;html=1;strokeColor=none;fillColor=none;align=center;verticalAlign=middle;whiteSpace=wrap;rounded=0;fontSize=14;fontColor=#000000;" parent="ETShx9Jj8pTSeEwa7h_H-79" vertex="1">
          <mxGeometry x="42.5" y="240" width="115" height="30" as="geometry" />
        </mxCell>
        <mxCell id="7pABPfw_jYTxYj795POy-14" value="Teams (BsonDocument)" style="text;html=1;strokeColor=none;fillColor=none;align=center;verticalAlign=middle;whiteSpace=wrap;rounded=0;fontSize=14;fontColor=#000000;" parent="ETShx9Jj8pTSeEwa7h_H-79" vertex="1">
          <mxGeometry x="22.5" y="270" width="155" height="30" as="geometry" />
        </mxCell>
        <mxCell id="7pABPfw_jYTxYj795POy-15" value="End User : User" style="swimlane;fontSize=14;fontColor=#000000;startSize=23;" parent="ETShx9Jj8pTSeEwa7h_H-3" vertex="1">
          <mxGeometry y="340" width="200" height="240" as="geometry" />
        </mxCell>
        <mxCell id="7pABPfw_jYTxYj795POy-16" value="Username(?) (string)" style="text;html=1;strokeColor=none;fillColor=none;align=center;verticalAlign=middle;whiteSpace=wrap;rounded=0;fontSize=14;fontColor=#000000;" parent="7pABPfw_jYTxYj795POy-15" vertex="1">
          <mxGeometry x="27.5" y="30" width="145" height="30" as="geometry" />
        </mxCell>
        <mxCell id="7pABPfw_jYTxYj795POy-17" value="Password (byteArray/string)" style="text;html=1;strokeColor=none;fillColor=none;align=center;verticalAlign=middle;whiteSpace=wrap;rounded=0;fontSize=14;fontColor=#000000;" parent="7pABPfw_jYTxYj795POy-15" vertex="1">
          <mxGeometry x="-5" y="60" width="210" height="30" as="geometry" />
        </mxCell>
        <mxCell id="7pABPfw_jYTxYj795POy-18" value="First Name? (string)" style="text;html=1;strokeColor=none;fillColor=none;align=center;verticalAlign=middle;whiteSpace=wrap;rounded=0;fontSize=14;fontColor=#000000;" parent="7pABPfw_jYTxYj795POy-15" vertex="1">
          <mxGeometry x="32.5" y="90" width="135" height="30" as="geometry" />
        </mxCell>
        <mxCell id="7pABPfw_jYTxYj795POy-19" value="Last Name? (string)" style="text;html=1;strokeColor=none;fillColor=none;align=center;verticalAlign=middle;whiteSpace=wrap;rounded=0;fontSize=14;fontColor=#000000;" parent="7pABPfw_jYTxYj795POy-15" vertex="1">
          <mxGeometry x="35" y="120" width="135" height="30" as="geometry" />
        </mxCell>
        <mxCell id="7pABPfw_jYTxYj795POy-21" value="Email (string)" style="text;html=1;strokeColor=none;fillColor=none;align=center;verticalAlign=middle;whiteSpace=wrap;rounded=0;fontSize=14;fontColor=#000000;" parent="7pABPfw_jYTxYj795POy-15" vertex="1">
          <mxGeometry x="52.5" y="145" width="95" height="30" as="geometry" />
        </mxCell>
        <mxCell id="7pABPfw_jYTxYj795POy-22" value="&lt;div&gt;Phonenumber? (int)&lt;/div&gt;" style="text;html=1;strokeColor=none;fillColor=none;align=center;verticalAlign=middle;whiteSpace=wrap;rounded=0;fontSize=14;fontColor=#000000;" parent="7pABPfw_jYTxYj795POy-15" vertex="1">
          <mxGeometry x="20" y="170" width="160" height="30" as="geometry" />
        </mxCell>
        <mxCell id="7pABPfw_jYTxYj795POy-23" value="Location? (string)" style="text;html=1;strokeColor=none;fillColor=none;align=center;verticalAlign=middle;whiteSpace=wrap;rounded=0;fontSize=14;fontColor=#000000;" parent="7pABPfw_jYTxYj795POy-15" vertex="1">
          <mxGeometry x="35" y="200" width="115" height="30" as="geometry" />
        </mxCell>
        <mxCell id="ETShx9Jj8pTSeEwa7h_H-22" value="Ticket" style="swimlane;fontSize=16;fontColor=#00FF00;fillColor=#CCFFFF;" parent="1" vertex="1">
          <mxGeometry x="1000" y="40" width="200" height="160" as="geometry" />
        </mxCell>
        <mxCell id="ETShx9Jj8pTSeEwa7h_H-23" value="Queries" style="swimlane;fontSize=14;fontStyle=5" parent="ETShx9Jj8pTSeEwa7h_H-22" vertex="1">
          <mxGeometry x="239" y="20" width="200" height="300" as="geometry" />
        </mxCell>
        <mxCell id="ETShx9Jj8pTSeEwa7h_H-24" value="Create" style="swimlane;" parent="ETShx9Jj8pTSeEwa7h_H-23" vertex="1">
          <mxGeometry y="20" width="200" height="70" as="geometry" />
        </mxCell>
        <mxCell id="ETShx9Jj8pTSeEwa7h_H-43" value="Create Ticket" style="text;html=1;strokeColor=none;fillColor=none;align=center;verticalAlign=middle;whiteSpace=wrap;rounded=0;fontSize=14;fontColor=#000000;" parent="ETShx9Jj8pTSeEwa7h_H-24" vertex="1">
          <mxGeometry x="55" y="20" width="90" height="30" as="geometry" />
        </mxCell>
        <mxCell id="ETShx9Jj8pTSeEwa7h_H-25" value="Read" style="swimlane;" parent="ETShx9Jj8pTSeEwa7h_H-23" vertex="1">
          <mxGeometry y="90" width="200" height="70" as="geometry" />
        </mxCell>
        <mxCell id="ETShx9Jj8pTSeEwa7h_H-44" value="GetTicket" style="text;html=1;strokeColor=none;fillColor=none;align=center;verticalAlign=middle;whiteSpace=wrap;rounded=0;fontSize=14;fontColor=#000000;" parent="ETShx9Jj8pTSeEwa7h_H-25" vertex="1">
          <mxGeometry x="70" y="20" width="60" height="30" as="geometry" />
        </mxCell>
        <mxCell id="ETShx9Jj8pTSeEwa7h_H-26" value="Update" style="swimlane;" parent="ETShx9Jj8pTSeEwa7h_H-23" vertex="1">
          <mxGeometry y="160" width="200" height="70" as="geometry" />
        </mxCell>
        <mxCell id="ETShx9Jj8pTSeEwa7h_H-47" value="CloseTicket" style="text;html=1;align=center;verticalAlign=middle;resizable=0;points=[];autosize=1;strokeColor=none;fillColor=none;fontSize=14;fontColor=#000000;" parent="ETShx9Jj8pTSeEwa7h_H-26" vertex="1">
          <mxGeometry x="50" y="35" width="100" height="30" as="geometry" />
        </mxCell>
        <mxCell id="ETShx9Jj8pTSeEwa7h_H-27" value="Delete" style="swimlane;" parent="ETShx9Jj8pTSeEwa7h_H-23" vertex="1">
          <mxGeometry y="230" width="200" height="70" as="geometry" />
        </mxCell>
        <mxCell id="ETShx9Jj8pTSeEwa7h_H-46" value="(?)" style="text;html=1;align=center;verticalAlign=middle;resizable=0;points=[];autosize=1;strokeColor=none;fillColor=none;fontSize=14;fontColor=#000000;" parent="ETShx9Jj8pTSeEwa7h_H-27" vertex="1">
          <mxGeometry x="80" y="40" width="40" height="30" as="geometry" />
        </mxCell>
        <mxCell id="ETShx9Jj8pTSeEwa7h_H-45" value="-" style="text;html=1;align=center;verticalAlign=middle;resizable=0;points=[];autosize=1;strokeColor=none;fillColor=none;fontSize=14;fontColor=#000000;" parent="ETShx9Jj8pTSeEwa7h_H-27" vertex="1">
          <mxGeometry x="85" y="20" width="30" height="30" as="geometry" />
        </mxCell>
        <mxCell id="ETShx9Jj8pTSeEwa7h_H-53" value="Queries" style="swimlane;fontSize=14;fontStyle=5" parent="ETShx9Jj8pTSeEwa7h_H-22" vertex="1">
          <mxGeometry x="479" y="20" width="200" height="300" as="geometry" />
        </mxCell>
        <mxCell id="ETShx9Jj8pTSeEwa7h_H-54" value="Create" style="swimlane;" parent="ETShx9Jj8pTSeEwa7h_H-53" vertex="1">
          <mxGeometry y="20" width="200" height="70" as="geometry" />
        </mxCell>
        <mxCell id="ETShx9Jj8pTSeEwa7h_H-55" value="Create IncidentType" style="text;html=1;strokeColor=none;fillColor=none;align=center;verticalAlign=middle;whiteSpace=wrap;rounded=0;fontSize=14;fontColor=#000000;" parent="ETShx9Jj8pTSeEwa7h_H-54" vertex="1">
          <mxGeometry x="33.75" y="20" width="132.5" height="30" as="geometry" />
        </mxCell>
        <mxCell id="ETShx9Jj8pTSeEwa7h_H-56" value="Read" style="swimlane;" parent="ETShx9Jj8pTSeEwa7h_H-53" vertex="1">
          <mxGeometry y="90" width="200" height="70" as="geometry" />
        </mxCell>
        <mxCell id="ETShx9Jj8pTSeEwa7h_H-57" value="GetIncidentType" style="text;html=1;strokeColor=none;fillColor=none;align=center;verticalAlign=middle;whiteSpace=wrap;rounded=0;fontSize=14;fontColor=#000000;" parent="ETShx9Jj8pTSeEwa7h_H-56" vertex="1">
          <mxGeometry x="70" y="20" width="60" height="30" as="geometry" />
        </mxCell>
        <mxCell id="ETShx9Jj8pTSeEwa7h_H-58" value="Update" style="swimlane;" parent="ETShx9Jj8pTSeEwa7h_H-53" vertex="1">
          <mxGeometry y="160" width="200" height="70" as="geometry" />
        </mxCell>
        <mxCell id="ETShx9Jj8pTSeEwa7h_H-65" value="(?)" style="text;html=1;align=center;verticalAlign=middle;resizable=0;points=[];autosize=1;strokeColor=none;fillColor=none;fontSize=14;fontColor=#000000;" parent="ETShx9Jj8pTSeEwa7h_H-58" vertex="1">
          <mxGeometry x="80" y="25" width="40" height="30" as="geometry" />
        </mxCell>
        <mxCell id="ETShx9Jj8pTSeEwa7h_H-59" value="Delete" style="swimlane;" parent="ETShx9Jj8pTSeEwa7h_H-53" vertex="1">
          <mxGeometry y="230" width="200" height="70" as="geometry" />
        </mxCell>
        <mxCell id="ETShx9Jj8pTSeEwa7h_H-60" value="Delete IncidentType" style="text;html=1;strokeColor=none;fillColor=none;align=center;verticalAlign=middle;whiteSpace=wrap;rounded=0;fontSize=14;fontColor=#000000;" parent="ETShx9Jj8pTSeEwa7h_H-59" vertex="1">
          <mxGeometry x="28.75" y="20" width="142.5" height="30" as="geometry" />
        </mxCell>
        <mxCell id="6wYLn8KQvJQrpvTA0No2-17" value="Privilege" style="swimlane;fontSize=16;fontColor=#FFFF00;fillColor=#CCCCCC;" vertex="1" parent="ETShx9Jj8pTSeEwa7h_H-22">
          <mxGeometry width="200" height="160" as="geometry" />
        </mxCell>
        <mxCell id="6wYLn8KQvJQrpvTA0No2-27" value="Objects" style="swimlane;fontStyle=5;startSize=20;fontSize=14;" vertex="1" parent="6wYLn8KQvJQrpvTA0No2-17">
          <mxGeometry y="20" width="200" height="140" as="geometry" />
        </mxCell>
        <mxCell id="6wYLn8KQvJQrpvTA0No2-28" value="Privilege" style="swimlane;fontSize=14;fontColor=#000000;" vertex="1" parent="6wYLn8KQvJQrpvTA0No2-27">
          <mxGeometry y="20" width="200" height="120" as="geometry" />
        </mxCell>
        <mxCell id="6wYLn8KQvJQrpvTA0No2-29" value="Create (Boolean)" style="text;html=1;strokeColor=none;fillColor=none;align=center;verticalAlign=middle;whiteSpace=wrap;rounded=0;fontSize=14;fontColor=#000000;" vertex="1" parent="6wYLn8KQvJQrpvTA0No2-28">
          <mxGeometry x="35" y="20" width="130" height="30" as="geometry" />
        </mxCell>
        <mxCell id="6wYLn8KQvJQrpvTA0No2-30" value="Read (Boolean)" style="text;html=1;strokeColor=none;fillColor=none;align=center;verticalAlign=middle;whiteSpace=wrap;rounded=0;fontSize=14;fontColor=#000000;" vertex="1" parent="6wYLn8KQvJQrpvTA0No2-28">
          <mxGeometry x="35" y="40" width="130" height="30" as="geometry" />
        </mxCell>
        <mxCell id="6wYLn8KQvJQrpvTA0No2-31" value="Update (Boolean)" style="text;html=1;strokeColor=none;fillColor=none;align=center;verticalAlign=middle;whiteSpace=wrap;rounded=0;fontSize=14;fontColor=#000000;" vertex="1" parent="6wYLn8KQvJQrpvTA0No2-28">
          <mxGeometry x="35" y="60" width="130" height="30" as="geometry" />
        </mxCell>
        <mxCell id="6wYLn8KQvJQrpvTA0No2-32" value="Delete (Boolean)" style="text;html=1;strokeColor=none;fillColor=none;align=center;verticalAlign=middle;whiteSpace=wrap;rounded=0;fontSize=14;fontColor=#000000;" vertex="1" parent="6wYLn8KQvJQrpvTA0No2-28">
          <mxGeometry x="35" y="80" width="130" height="30" as="geometry" />
        </mxCell>
        <mxCell id="ETShx9Jj8pTSeEwa7h_H-51" value="Delete User" style="text;html=1;strokeColor=none;fillColor=none;align=center;verticalAlign=middle;whiteSpace=wrap;rounded=0;fontSize=14;fontColor=#000000;" parent="1" vertex="1">
          <mxGeometry x="105" y="340" width="90" height="30" as="geometry" />
        </mxCell>
        <mxCell id="ETShx9Jj8pTSeEwa7h_H-52" value="Ticket" style="swimlane;fontSize=16;fontColor=#00FF00;fillColor=#CCFFFF;" parent="1" vertex="1">
          <mxGeometry x="1240" y="40" width="200" height="440" as="geometry" />
        </mxCell>
        <mxCell id="ETShx9Jj8pTSeEwa7h_H-61" value="Objects" style="swimlane;fontStyle=5;startSize=20;fontSize=14;" parent="ETShx9Jj8pTSeEwa7h_H-52" vertex="1">
          <mxGeometry y="320" width="200" height="120" as="geometry" />
        </mxCell>
        <mxCell id="7pABPfw_jYTxYj795POy-27" value="Ticket" style="swimlane;fontSize=14;fontColor=#000000;" parent="ETShx9Jj8pTSeEwa7h_H-61" vertex="1">
          <mxGeometry y="20" width="200" height="100" as="geometry" />
        </mxCell>
        <mxCell id="6wYLn8KQvJQrpvTA0No2-89" value="IncidentType (string)" style="text;html=1;strokeColor=none;fillColor=none;align=center;verticalAlign=middle;whiteSpace=wrap;rounded=0;fontSize=14;fontColor=#000000;" vertex="1" parent="7pABPfw_jYTxYj795POy-27">
          <mxGeometry x="5" y="20" width="190" height="30" as="geometry" />
        </mxCell>
        <mxCell id="ETShx9Jj8pTSeEwa7h_H-66" value="Role" style="swimlane;fontSize=16;fontColor=#FF9933;fillColor=#CCFFFF;" parent="1" vertex="1">
          <mxGeometry x="760" y="40" width="200" height="440" as="geometry" />
        </mxCell>
        <mxCell id="ETShx9Jj8pTSeEwa7h_H-67" value="Queries" style="swimlane;fontSize=14;fontStyle=5" parent="ETShx9Jj8pTSeEwa7h_H-66" vertex="1">
          <mxGeometry y="20" width="200" height="300" as="geometry" />
        </mxCell>
        <mxCell id="ETShx9Jj8pTSeEwa7h_H-68" value="Create" style="swimlane;" parent="ETShx9Jj8pTSeEwa7h_H-67" vertex="1">
          <mxGeometry y="20" width="200" height="70" as="geometry" />
        </mxCell>
        <mxCell id="ETShx9Jj8pTSeEwa7h_H-69" value="Create Role" style="text;html=1;strokeColor=none;fillColor=none;align=center;verticalAlign=middle;whiteSpace=wrap;rounded=0;fontSize=14;fontColor=#000000;" parent="ETShx9Jj8pTSeEwa7h_H-68" vertex="1">
          <mxGeometry x="33.75" y="20" width="132.5" height="30" as="geometry" />
        </mxCell>
        <mxCell id="ETShx9Jj8pTSeEwa7h_H-70" value="Read" style="swimlane;" parent="ETShx9Jj8pTSeEwa7h_H-67" vertex="1">
          <mxGeometry y="90" width="200" height="70" as="geometry" />
        </mxCell>
        <mxCell id="ETShx9Jj8pTSeEwa7h_H-71" value="GetRole" style="text;html=1;strokeColor=none;fillColor=none;align=center;verticalAlign=middle;whiteSpace=wrap;rounded=0;fontSize=14;fontColor=#000000;" parent="ETShx9Jj8pTSeEwa7h_H-70" vertex="1">
          <mxGeometry x="70" y="20" width="60" height="30" as="geometry" />
        </mxCell>
        <mxCell id="ETShx9Jj8pTSeEwa7h_H-72" value="Update" style="swimlane;" parent="ETShx9Jj8pTSeEwa7h_H-67" vertex="1">
          <mxGeometry y="160" width="200" height="70" as="geometry" />
        </mxCell>
        <mxCell id="ETShx9Jj8pTSeEwa7h_H-73" value="(?)" style="text;html=1;align=center;verticalAlign=middle;resizable=0;points=[];autosize=1;strokeColor=none;fillColor=none;fontSize=14;fontColor=#000000;" parent="ETShx9Jj8pTSeEwa7h_H-72" vertex="1">
          <mxGeometry x="80" y="25" width="40" height="30" as="geometry" />
        </mxCell>
        <mxCell id="ETShx9Jj8pTSeEwa7h_H-74" value="Delete" style="swimlane;" parent="ETShx9Jj8pTSeEwa7h_H-67" vertex="1">
          <mxGeometry y="230" width="200" height="70" as="geometry" />
        </mxCell>
        <mxCell id="ETShx9Jj8pTSeEwa7h_H-75" value="Delete Role" style="text;html=1;strokeColor=none;fillColor=none;align=center;verticalAlign=middle;whiteSpace=wrap;rounded=0;fontSize=14;fontColor=#000000;" parent="ETShx9Jj8pTSeEwa7h_H-74" vertex="1">
          <mxGeometry x="47.5" y="20" width="105" height="30" as="geometry" />
        </mxCell>
        <mxCell id="ETShx9Jj8pTSeEwa7h_H-76" value="Objects" style="swimlane;fontStyle=5;startSize=20;fontSize=14;" parent="ETShx9Jj8pTSeEwa7h_H-66" vertex="1">
          <mxGeometry y="320" width="200" height="120" as="geometry" />
        </mxCell>
        <mxCell id="7pABPfw_jYTxYj795POy-28" value="Role" style="swimlane;fontSize=14;fontColor=#000000;startSize=23;" parent="ETShx9Jj8pTSeEwa7h_H-76" vertex="1">
          <mxGeometry y="20" width="200" height="100" as="geometry" />
        </mxCell>
        <mxCell id="6wYLn8KQvJQrpvTA0No2-34" value="PrivilegeX (BsonDocument)" style="text;html=1;strokeColor=none;fillColor=none;align=center;verticalAlign=middle;whiteSpace=wrap;rounded=0;fontSize=14;fontColor=#000000;" vertex="1" parent="7pABPfw_jYTxYj795POy-28">
          <mxGeometry x="5" y="25" width="190" height="30" as="geometry" />
        </mxCell>
        <mxCell id="6wYLn8KQvJQrpvTA0No2-35" value="PrivilegeX (BsonDocument)" style="text;html=1;strokeColor=none;fillColor=none;align=center;verticalAlign=middle;whiteSpace=wrap;rounded=0;fontSize=14;fontColor=#000000;" vertex="1" parent="7pABPfw_jYTxYj795POy-28">
          <mxGeometry x="5" y="45" width="190" height="30" as="geometry" />
        </mxCell>
        <mxCell id="6wYLn8KQvJQrpvTA0No2-37" value="PrivilegeX (BsonDocument)" style="text;html=1;strokeColor=none;fillColor=none;align=center;verticalAlign=middle;whiteSpace=wrap;rounded=0;fontSize=14;fontColor=#000000;" vertex="1" parent="7pABPfw_jYTxYj795POy-28">
          <mxGeometry x="5" y="60" width="190" height="30" as="geometry" />
        </mxCell>
        <mxCell id="7pABPfw_jYTxYj795POy-41" style="edgeStyle=orthogonalEdgeStyle;rounded=0;orthogonalLoop=1;jettySize=auto;html=1;entryX=0;entryY=0.5;entryDx=0;entryDy=0;fontSize=14;fontColor=#000000;" parent="1" source="7pABPfw_jYTxYj795POy-29" target="7pABPfw_jYTxYj795POy-36" edge="1">
          <mxGeometry relative="1" as="geometry" />
        </mxCell>
        <mxCell id="7pABPfw_jYTxYj795POy-46" style="edgeStyle=orthogonalEdgeStyle;rounded=0;orthogonalLoop=1;jettySize=auto;html=1;entryX=0.5;entryY=0;entryDx=0;entryDy=0;fontSize=14;fontColor=#000000;" parent="1" source="7pABPfw_jYTxYj795POy-29" target="7pABPfw_jYTxYj795POy-45" edge="1">
          <mxGeometry relative="1" as="geometry">
            <Array as="points">
              <mxPoint x="490" y="830" />
            </Array>
          </mxGeometry>
        </mxCell>
        <mxCell id="7pABPfw_jYTxYj795POy-59" style="edgeStyle=orthogonalEdgeStyle;rounded=0;orthogonalLoop=1;jettySize=auto;html=1;entryX=0;entryY=0.5;entryDx=0;entryDy=0;fontSize=14;fontColor=#FF8000;" parent="1" source="7pABPfw_jYTxYj795POy-29" target="7pABPfw_jYTxYj795POy-57" edge="1">
          <mxGeometry relative="1" as="geometry">
            <Array as="points">
              <mxPoint x="580" y="935" />
            </Array>
          </mxGeometry>
        </mxCell>
        <mxCell id="6wYLn8KQvJQrpvTA0No2-15" style="edgeStyle=orthogonalEdgeStyle;rounded=0;orthogonalLoop=1;jettySize=auto;html=1;fontColor=#000000;entryX=0;entryY=0.5;entryDx=0;entryDy=0;" edge="1" parent="1" source="7pABPfw_jYTxYj795POy-29" target="6wYLn8KQvJQrpvTA0No2-14">
          <mxGeometry relative="1" as="geometry">
            <mxPoint x="620" y="700" as="targetPoint" />
            <Array as="points">
              <mxPoint x="620" y="700" />
            </Array>
          </mxGeometry>
        </mxCell>
        <mxCell id="6wYLn8KQvJQrpvTA0No2-93" style="edgeStyle=orthogonalEdgeStyle;rounded=0;orthogonalLoop=1;jettySize=auto;html=1;entryX=1;entryY=0.5;entryDx=0;entryDy=0;fontColor=#FF8000;" edge="1" parent="1" source="7pABPfw_jYTxYj795POy-29" target="6wYLn8KQvJQrpvTA0No2-77">
          <mxGeometry relative="1" as="geometry" />
        </mxCell>
        <mxCell id="7pABPfw_jYTxYj795POy-29" value="&lt;font color=&quot;#00FF00&quot;&gt;Employee&lt;/font&gt;" style="ellipse;whiteSpace=wrap;html=1;fontSize=14;fontColor=#000000;fillColor=#FF9933;" parent="1" vertex="1">
          <mxGeometry x="560" y="780" width="120" height="80" as="geometry" />
        </mxCell>
        <mxCell id="7pABPfw_jYTxYj795POy-44" style="edgeStyle=orthogonalEdgeStyle;rounded=0;orthogonalLoop=1;jettySize=auto;html=1;fontSize=14;fontColor=#000000;" parent="1" source="7pABPfw_jYTxYj795POy-30" target="7pABPfw_jYTxYj795POy-37" edge="1">
          <mxGeometry relative="1" as="geometry" />
        </mxCell>
        <mxCell id="7pABPfw_jYTxYj795POy-30" value="&lt;div&gt;is of&lt;br&gt;&lt;/div&gt;" style="rhombus;whiteSpace=wrap;html=1;fontSize=14;fontColor=#000000;" parent="1" vertex="1">
          <mxGeometry x="1030" y="775" width="90" height="90" as="geometry" />
        </mxCell>
        <mxCell id="7pABPfw_jYTxYj795POy-43" style="edgeStyle=orthogonalEdgeStyle;rounded=0;orthogonalLoop=1;jettySize=auto;html=1;entryX=0;entryY=0.5;entryDx=0;entryDy=0;fontSize=14;fontColor=#000000;" parent="1" source="7pABPfw_jYTxYj795POy-31" target="7pABPfw_jYTxYj795POy-30" edge="1">
          <mxGeometry relative="1" as="geometry" />
        </mxCell>
        <mxCell id="6wYLn8KQvJQrpvTA0No2-98" style="edgeStyle=orthogonalEdgeStyle;rounded=0;orthogonalLoop=1;jettySize=auto;html=1;entryX=0.5;entryY=0;entryDx=0;entryDy=0;fontColor=#FF8000;" edge="1" parent="1" source="7pABPfw_jYTxYj795POy-31" target="6wYLn8KQvJQrpvTA0No2-97">
          <mxGeometry relative="1" as="geometry" />
        </mxCell>
        <mxCell id="7pABPfw_jYTxYj795POy-31" value="&lt;font color=&quot;#00FF00&quot;&gt;Ticket&lt;/font&gt;" style="ellipse;whiteSpace=wrap;html=1;fontSize=14;fontColor=#000000;fillColor=#9999FF;" parent="1" vertex="1">
          <mxGeometry x="860" y="780" width="120" height="80" as="geometry" />
        </mxCell>
        <mxCell id="7pABPfw_jYTxYj795POy-38" style="edgeStyle=orthogonalEdgeStyle;rounded=0;orthogonalLoop=1;jettySize=auto;html=1;entryX=0.5;entryY=0;entryDx=0;entryDy=0;fontSize=14;fontColor=#000000;" parent="1" source="7pABPfw_jYTxYj795POy-32" target="7pABPfw_jYTxYj795POy-35" edge="1">
          <mxGeometry relative="1" as="geometry" />
        </mxCell>
        <mxCell id="6wYLn8KQvJQrpvTA0No2-9" style="edgeStyle=orthogonalEdgeStyle;rounded=0;orthogonalLoop=1;jettySize=auto;html=1;fontColor=#000000;" edge="1" parent="1" source="7pABPfw_jYTxYj795POy-32" target="7pABPfw_jYTxYj795POy-64">
          <mxGeometry relative="1" as="geometry" />
        </mxCell>
        <mxCell id="6wYLn8KQvJQrpvTA0No2-10" style="edgeStyle=orthogonalEdgeStyle;rounded=0;orthogonalLoop=1;jettySize=auto;html=1;entryX=1;entryY=0;entryDx=0;entryDy=0;fontColor=#000000;" edge="1" parent="1" source="7pABPfw_jYTxYj795POy-32" target="6wYLn8KQvJQrpvTA0No2-6">
          <mxGeometry relative="1" as="geometry">
            <Array as="points">
              <mxPoint x="837" y="590" />
              <mxPoint x="837" y="568" />
            </Array>
          </mxGeometry>
        </mxCell>
        <mxCell id="7pABPfw_jYTxYj795POy-32" value="&lt;font color=&quot;#00FF00&quot;&gt;End User&lt;/font&gt;" style="ellipse;whiteSpace=wrap;html=1;fontSize=14;fontColor=#000000;fillColor=#FF9933;" parent="1" vertex="1">
          <mxGeometry x="860" y="555" width="120" height="80" as="geometry" />
        </mxCell>
        <mxCell id="7pABPfw_jYTxYj795POy-50" style="edgeStyle=orthogonalEdgeStyle;rounded=0;orthogonalLoop=1;jettySize=auto;html=1;entryX=0;entryY=0.5;entryDx=0;entryDy=0;fontSize=14;fontColor=#000000;" parent="1" source="7pABPfw_jYTxYj795POy-33" target="7pABPfw_jYTxYj795POy-49" edge="1">
          <mxGeometry relative="1" as="geometry" />
        </mxCell>
        <mxCell id="7pABPfw_jYTxYj795POy-33" value="&lt;font color=&quot;#FF8000&quot;&gt;Role&lt;/font&gt;" style="ellipse;whiteSpace=wrap;html=1;fontSize=14;fontColor=#000000;fillColor=#33FFFF;" parent="1" vertex="1">
          <mxGeometry x="430" y="1017.5" width="120" height="80" as="geometry" />
        </mxCell>
        <mxCell id="7pABPfw_jYTxYj795POy-52" style="edgeStyle=orthogonalEdgeStyle;rounded=0;orthogonalLoop=1;jettySize=auto;html=1;entryX=0.5;entryY=1;entryDx=0;entryDy=0;fontSize=14;fontColor=#000000;" parent="1" source="7pABPfw_jYTxYj795POy-34" target="7pABPfw_jYTxYj795POy-36" edge="1">
          <mxGeometry relative="1" as="geometry">
            <Array as="points">
              <mxPoint x="780" y="939" />
              <mxPoint x="764" y="939" />
            </Array>
          </mxGeometry>
        </mxCell>
        <mxCell id="7pABPfw_jYTxYj795POy-61" style="edgeStyle=orthogonalEdgeStyle;rounded=0;orthogonalLoop=1;jettySize=auto;html=1;fontSize=14;fontColor=#FF8000;entryX=1;entryY=0.5;entryDx=0;entryDy=0;exitX=0.5;exitY=0;exitDx=0;exitDy=0;" parent="1" source="7pABPfw_jYTxYj795POy-34" target="7pABPfw_jYTxYj795POy-57" edge="1">
          <mxGeometry relative="1" as="geometry">
            <mxPoint x="730" y="935" as="targetPoint" />
            <mxPoint x="764" y="1015" as="sourcePoint" />
            <Array as="points">
              <mxPoint x="764" y="975" />
              <mxPoint x="680" y="975" />
            </Array>
          </mxGeometry>
        </mxCell>
        <mxCell id="6wYLn8KQvJQrpvTA0No2-13" style="edgeStyle=orthogonalEdgeStyle;rounded=0;orthogonalLoop=1;jettySize=auto;html=1;fontColor=#000000;" edge="1" parent="1" source="7pABPfw_jYTxYj795POy-34">
          <mxGeometry relative="1" as="geometry">
            <mxPoint x="820" y="730" as="targetPoint" />
            <Array as="points">
              <mxPoint x="800" y="954" />
              <mxPoint x="820" y="954" />
              <mxPoint x="820" y="840" />
              <mxPoint x="830" y="840" />
              <mxPoint x="830" y="800" />
              <mxPoint x="820" y="800" />
            </Array>
          </mxGeometry>
        </mxCell>
        <mxCell id="7pABPfw_jYTxYj795POy-34" value="&lt;font color=&quot;#FFFF00&quot;&gt;Privilege&lt;/font&gt;" style="ellipse;whiteSpace=wrap;html=1;fontSize=14;fontColor=#000000;fillColor=#CCCCCC;" parent="1" vertex="1">
          <mxGeometry x="724" y="1017.5" width="120" height="80" as="geometry" />
        </mxCell>
        <mxCell id="7pABPfw_jYTxYj795POy-39" style="edgeStyle=orthogonalEdgeStyle;rounded=0;orthogonalLoop=1;jettySize=auto;html=1;entryX=0.5;entryY=0;entryDx=0;entryDy=0;fontSize=14;fontColor=#000000;" parent="1" source="7pABPfw_jYTxYj795POy-35" target="7pABPfw_jYTxYj795POy-31" edge="1">
          <mxGeometry relative="1" as="geometry" />
        </mxCell>
        <mxCell id="7pABPfw_jYTxYj795POy-35" value="&lt;div&gt;Can &lt;br&gt;&lt;/div&gt;&lt;div&gt;Create&lt;/div&gt;&lt;div&gt;a&lt;br&gt;&lt;/div&gt;" style="rhombus;whiteSpace=wrap;html=1;fontSize=14;fontColor=#000000;" parent="1" vertex="1">
          <mxGeometry x="880" y="670" width="80" height="80" as="geometry" />
        </mxCell>
        <mxCell id="7pABPfw_jYTxYj795POy-42" style="edgeStyle=orthogonalEdgeStyle;rounded=0;orthogonalLoop=1;jettySize=auto;html=1;fontSize=14;fontColor=#000000;" parent="1" source="7pABPfw_jYTxYj795POy-36" target="7pABPfw_jYTxYj795POy-31" edge="1">
          <mxGeometry relative="1" as="geometry" />
        </mxCell>
        <mxCell id="7pABPfw_jYTxYj795POy-36" value="&lt;div&gt;Can C.R.U.D.&lt;/div&gt;&lt;div&gt;a&lt;br&gt;&lt;/div&gt;" style="rhombus;whiteSpace=wrap;html=1;fontSize=14;fontColor=#000000;" parent="1" vertex="1">
          <mxGeometry x="724" y="780" width="80" height="80" as="geometry" />
        </mxCell>
        <mxCell id="7pABPfw_jYTxYj795POy-37" value="&lt;font color=&quot;#FF8000&quot;&gt;IncidentType&lt;/font&gt;" style="ellipse;whiteSpace=wrap;html=1;fontSize=14;fontColor=#000000;fillColor=#00FFFF;" parent="1" vertex="1">
          <mxGeometry x="1160" y="780" width="120" height="80" as="geometry" />
        </mxCell>
        <mxCell id="7pABPfw_jYTxYj795POy-48" style="edgeStyle=orthogonalEdgeStyle;rounded=0;orthogonalLoop=1;jettySize=auto;html=1;fontSize=14;fontColor=#000000;" parent="1" source="7pABPfw_jYTxYj795POy-45" target="7pABPfw_jYTxYj795POy-33" edge="1">
          <mxGeometry relative="1" as="geometry" />
        </mxCell>
        <mxCell id="7pABPfw_jYTxYj795POy-45" value="&lt;div&gt;Has &lt;br&gt;&lt;/div&gt;&lt;div&gt;a&lt;/div&gt;" style="rhombus;whiteSpace=wrap;html=1;fontSize=14;fontColor=#000000;" parent="1" vertex="1">
          <mxGeometry x="450" y="845" width="80" height="80" as="geometry" />
        </mxCell>
        <mxCell id="7pABPfw_jYTxYj795POy-51" style="edgeStyle=orthogonalEdgeStyle;rounded=0;orthogonalLoop=1;jettySize=auto;html=1;fontSize=14;fontColor=#000000;" parent="1" source="7pABPfw_jYTxYj795POy-49" target="7pABPfw_jYTxYj795POy-34" edge="1">
          <mxGeometry relative="1" as="geometry" />
        </mxCell>
        <mxCell id="7pABPfw_jYTxYj795POy-49" value="&lt;div&gt;Will&lt;br&gt;&lt;/div&gt;&lt;div&gt;have&lt;/div&gt;&lt;div&gt;one or more&lt;br&gt;&lt;/div&gt;" style="rhombus;whiteSpace=wrap;html=1;fontSize=14;fontColor=#000000;" parent="1" vertex="1">
          <mxGeometry x="575" y="1005" width="115" height="105" as="geometry" />
        </mxCell>
        <mxCell id="7pABPfw_jYTxYj795POy-60" style="edgeStyle=orthogonalEdgeStyle;rounded=0;orthogonalLoop=1;jettySize=auto;html=1;exitX=0.5;exitY=0;exitDx=0;exitDy=0;entryX=0.5;entryY=1;entryDx=0;entryDy=0;fontSize=14;fontColor=#FF8000;" parent="1" source="7pABPfw_jYTxYj795POy-57" target="7pABPfw_jYTxYj795POy-29" edge="1">
          <mxGeometry relative="1" as="geometry" />
        </mxCell>
        <mxCell id="7pABPfw_jYTxYj795POy-57" value="&lt;div&gt;Can C.R.U.D.&lt;/div&gt;&lt;div&gt;a&lt;br&gt;&lt;/div&gt;" style="rhombus;whiteSpace=wrap;html=1;fontSize=14;fontColor=#000000;" parent="1" vertex="1">
          <mxGeometry x="600" y="895" width="80" height="80" as="geometry" />
        </mxCell>
        <mxCell id="7pABPfw_jYTxYj795POy-63" value="???" style="ellipse;whiteSpace=wrap;html=1;fontSize=14;fontColor=#000000;fillColor=#FFFF00;" parent="1" vertex="1">
          <mxGeometry x="1110" y="555" width="120" height="80" as="geometry" />
        </mxCell>
        <mxCell id="7pABPfw_jYTxYj795POy-66" style="edgeStyle=orthogonalEdgeStyle;rounded=0;orthogonalLoop=1;jettySize=auto;html=1;fontSize=14;fontColor=#000000;" parent="1" source="7pABPfw_jYTxYj795POy-64" target="7pABPfw_jYTxYj795POy-63" edge="1">
          <mxGeometry relative="1" as="geometry" />
        </mxCell>
        <mxCell id="7pABPfw_jYTxYj795POy-64" value="&lt;div&gt;Comes&lt;/div&gt;&lt;div&gt;from&lt;br&gt;&lt;/div&gt;" style="rhombus;whiteSpace=wrap;html=1;fontSize=14;fontColor=#000000;" parent="1" vertex="1">
          <mxGeometry x="1000" y="555" width="80" height="80" as="geometry" />
        </mxCell>
        <mxCell id="6wYLn8KQvJQrpvTA0No2-5" value="Garden Group Office356 environment?" style="text;html=1;strokeColor=none;fillColor=none;align=center;verticalAlign=middle;whiteSpace=wrap;rounded=0;fontColor=#000000;" vertex="1" parent="1">
          <mxGeometry x="1100" y="645" width="150" height="30" as="geometry" />
        </mxCell>
        <mxCell id="6wYLn8KQvJQrpvTA0No2-12" style="edgeStyle=orthogonalEdgeStyle;rounded=0;orthogonalLoop=1;jettySize=auto;html=1;fontColor=#000000;" edge="1" parent="1" source="6wYLn8KQvJQrpvTA0No2-6" target="7pABPfw_jYTxYj795POy-32">
          <mxGeometry relative="1" as="geometry">
            <Array as="points">
              <mxPoint x="835" y="630" />
              <mxPoint x="835" y="600" />
            </Array>
          </mxGeometry>
        </mxCell>
        <mxCell id="6wYLn8KQvJQrpvTA0No2-6" value="&lt;div&gt;Can create&lt;br&gt;&lt;/div&gt;&lt;div&gt;update a&lt;/div&gt;&lt;div&gt;(?)&lt;br&gt;&lt;/div&gt;" style="rhombus;whiteSpace=wrap;html=1;fontSize=14;fontColor=#000000;" vertex="1" parent="1">
          <mxGeometry x="704" y="540" width="110" height="110" as="geometry" />
        </mxCell>
        <mxCell id="6wYLn8KQvJQrpvTA0No2-16" style="edgeStyle=orthogonalEdgeStyle;rounded=0;orthogonalLoop=1;jettySize=auto;html=1;entryX=0;entryY=1;entryDx=0;entryDy=0;fontColor=#000000;" edge="1" parent="1" source="6wYLn8KQvJQrpvTA0No2-14" target="7pABPfw_jYTxYj795POy-32">
          <mxGeometry relative="1" as="geometry" />
        </mxCell>
        <mxCell id="6wYLn8KQvJQrpvTA0No2-14" value="&lt;div&gt;Can C.R.U.D.&lt;/div&gt;&lt;div&gt;a&lt;br&gt;&lt;/div&gt;" style="rhombus;whiteSpace=wrap;html=1;fontSize=14;fontColor=#000000;" vertex="1" parent="1">
          <mxGeometry x="780" y="660" width="80" height="80" as="geometry" />
        </mxCell>
        <mxCell id="6wYLn8KQvJQrpvTA0No2-40" value="Teams" style="swimlane;fontSize=16;fontColor=#FFFF00;fillColor=#CCCCCC;" vertex="1" parent="1">
          <mxGeometry x="280" y="40" width="200" height="140" as="geometry" />
        </mxCell>
        <mxCell id="6wYLn8KQvJQrpvTA0No2-50" value="Objects" style="swimlane;fontStyle=5;startSize=20;fontSize=14;" vertex="1" parent="6wYLn8KQvJQrpvTA0No2-40">
          <mxGeometry y="20" width="200" height="120" as="geometry" />
        </mxCell>
        <mxCell id="6wYLn8KQvJQrpvTA0No2-51" value="Role" style="swimlane;fontSize=14;fontColor=#000000;startSize=23;" vertex="1" parent="6wYLn8KQvJQrpvTA0No2-50">
          <mxGeometry y="20" width="200" height="100" as="geometry" />
        </mxCell>
        <mxCell id="6wYLn8KQvJQrpvTA0No2-52" value="TeamX (string)" style="text;html=1;strokeColor=none;fillColor=none;align=center;verticalAlign=middle;whiteSpace=wrap;rounded=0;fontSize=14;fontColor=#000000;" vertex="1" parent="6wYLn8KQvJQrpvTA0No2-51">
          <mxGeometry x="5" y="25" width="190" height="30" as="geometry" />
        </mxCell>
        <mxCell id="6wYLn8KQvJQrpvTA0No2-56" value="TeamX (string)" style="text;html=1;strokeColor=none;fillColor=none;align=center;verticalAlign=middle;whiteSpace=wrap;rounded=0;fontSize=14;fontColor=#000000;" vertex="1" parent="6wYLn8KQvJQrpvTA0No2-51">
          <mxGeometry x="5" y="45" width="190" height="30" as="geometry" />
        </mxCell>
        <mxCell id="6wYLn8KQvJQrpvTA0No2-57" value="TeamX (string)" style="text;html=1;strokeColor=none;fillColor=none;align=center;verticalAlign=middle;whiteSpace=wrap;rounded=0;fontSize=14;fontColor=#000000;" vertex="1" parent="6wYLn8KQvJQrpvTA0No2-51">
          <mxGeometry x="5" y="60" width="190" height="30" as="geometry" />
        </mxCell>
        <mxCell id="6wYLn8KQvJQrpvTA0No2-58" value="Team" style="swimlane;fontSize=16;fontColor=#FF9933;fillColor=#CCFFFF;" vertex="1" parent="1">
          <mxGeometry x="520" y="40" width="200" height="440" as="geometry" />
        </mxCell>
        <mxCell id="6wYLn8KQvJQrpvTA0No2-59" value="Queries" style="swimlane;fontSize=14;fontStyle=5" vertex="1" parent="6wYLn8KQvJQrpvTA0No2-58">
          <mxGeometry y="20" width="200" height="300" as="geometry" />
        </mxCell>
        <mxCell id="6wYLn8KQvJQrpvTA0No2-60" value="Create" style="swimlane;" vertex="1" parent="6wYLn8KQvJQrpvTA0No2-59">
          <mxGeometry y="20" width="200" height="70" as="geometry" />
        </mxCell>
        <mxCell id="6wYLn8KQvJQrpvTA0No2-61" value="Create Team" style="text;html=1;strokeColor=none;fillColor=none;align=center;verticalAlign=middle;whiteSpace=wrap;rounded=0;fontSize=14;fontColor=#000000;" vertex="1" parent="6wYLn8KQvJQrpvTA0No2-60">
          <mxGeometry x="33.75" y="20" width="132.5" height="30" as="geometry" />
        </mxCell>
        <mxCell id="6wYLn8KQvJQrpvTA0No2-62" value="Read" style="swimlane;" vertex="1" parent="6wYLn8KQvJQrpvTA0No2-59">
          <mxGeometry y="90" width="200" height="70" as="geometry" />
        </mxCell>
        <mxCell id="6wYLn8KQvJQrpvTA0No2-63" value="GetTeam" style="text;html=1;strokeColor=none;fillColor=none;align=center;verticalAlign=middle;whiteSpace=wrap;rounded=0;fontSize=14;fontColor=#000000;" vertex="1" parent="6wYLn8KQvJQrpvTA0No2-62">
          <mxGeometry x="70" y="20" width="60" height="30" as="geometry" />
        </mxCell>
        <mxCell id="6wYLn8KQvJQrpvTA0No2-64" value="Update" style="swimlane;" vertex="1" parent="6wYLn8KQvJQrpvTA0No2-59">
          <mxGeometry y="160" width="200" height="70" as="geometry" />
        </mxCell>
        <mxCell id="6wYLn8KQvJQrpvTA0No2-65" value="(?)" style="text;html=1;align=center;verticalAlign=middle;resizable=0;points=[];autosize=1;strokeColor=none;fillColor=none;fontSize=14;fontColor=#000000;" vertex="1" parent="6wYLn8KQvJQrpvTA0No2-64">
          <mxGeometry x="80" y="25" width="40" height="30" as="geometry" />
        </mxCell>
        <mxCell id="6wYLn8KQvJQrpvTA0No2-66" value="Delete" style="swimlane;" vertex="1" parent="6wYLn8KQvJQrpvTA0No2-59">
          <mxGeometry y="230" width="200" height="70" as="geometry" />
        </mxCell>
        <mxCell id="6wYLn8KQvJQrpvTA0No2-67" value="Delete Team" style="text;html=1;strokeColor=none;fillColor=none;align=center;verticalAlign=middle;whiteSpace=wrap;rounded=0;fontSize=14;fontColor=#000000;" vertex="1" parent="6wYLn8KQvJQrpvTA0No2-66">
          <mxGeometry x="47.5" y="20" width="105" height="30" as="geometry" />
        </mxCell>
        <mxCell id="6wYLn8KQvJQrpvTA0No2-68" value="Objects" style="swimlane;fontStyle=5;startSize=20;fontSize=14;" vertex="1" parent="6wYLn8KQvJQrpvTA0No2-58">
          <mxGeometry y="320" width="200" height="120" as="geometry" />
        </mxCell>
        <mxCell id="6wYLn8KQvJQrpvTA0No2-69" value="Role" style="swimlane;fontSize=14;fontColor=#000000;startSize=23;" vertex="1" parent="6wYLn8KQvJQrpvTA0No2-68">
          <mxGeometry y="20" width="200" height="100" as="geometry" />
        </mxCell>
        <mxCell id="6wYLn8KQvJQrpvTA0No2-70" value="_id (int)" style="text;html=1;strokeColor=none;fillColor=none;align=center;verticalAlign=middle;whiteSpace=wrap;rounded=0;fontSize=14;fontColor=#000000;" vertex="1" parent="6wYLn8KQvJQrpvTA0No2-69">
          <mxGeometry x="5" y="25" width="190" height="30" as="geometry" />
        </mxCell>
        <mxCell id="6wYLn8KQvJQrpvTA0No2-71" value="Name (string)" style="text;html=1;strokeColor=none;fillColor=none;align=center;verticalAlign=middle;whiteSpace=wrap;rounded=0;fontSize=14;fontColor=#000000;" vertex="1" parent="6wYLn8KQvJQrpvTA0No2-69">
          <mxGeometry x="5" y="45" width="190" height="30" as="geometry" />
        </mxCell>
        <mxCell id="6wYLn8KQvJQrpvTA0No2-72" value="Description (string)" style="text;html=1;strokeColor=none;fillColor=none;align=center;verticalAlign=middle;whiteSpace=wrap;rounded=0;fontSize=14;fontColor=#000000;" vertex="1" parent="6wYLn8KQvJQrpvTA0No2-69">
          <mxGeometry x="5" y="60" width="190" height="30" as="geometry" />
        </mxCell>
        <mxCell id="6wYLn8KQvJQrpvTA0No2-73" value="IncidentType" style="swimlane;fontSize=16;fontColor=#FF9933;fillColor=#CCFFFF;" vertex="1" parent="1">
          <mxGeometry x="1480" y="40" width="200" height="440" as="geometry" />
        </mxCell>
        <mxCell id="6wYLn8KQvJQrpvTA0No2-74" value="Objects" style="swimlane;fontStyle=5;startSize=20;fontSize=14;" vertex="1" parent="6wYLn8KQvJQrpvTA0No2-73">
          <mxGeometry y="320" width="200" height="120" as="geometry" />
        </mxCell>
        <mxCell id="6wYLn8KQvJQrpvTA0No2-75" value="IncidentType" style="swimlane;fontSize=14;fontColor=#000000;" vertex="1" parent="6wYLn8KQvJQrpvTA0No2-74">
          <mxGeometry y="20" width="200" height="100" as="geometry" />
        </mxCell>
        <mxCell id="6wYLn8KQvJQrpvTA0No2-91" value="_id (string)" style="text;html=1;strokeColor=none;fillColor=none;align=center;verticalAlign=middle;whiteSpace=wrap;rounded=0;fontSize=14;fontColor=#000000;" vertex="1" parent="6wYLn8KQvJQrpvTA0No2-75">
          <mxGeometry x="4" y="20" width="190" height="30" as="geometry" />
        </mxCell>
        <mxCell id="6wYLn8KQvJQrpvTA0No2-92" value="Description (string)" style="text;html=1;strokeColor=none;fillColor=none;align=center;verticalAlign=middle;whiteSpace=wrap;rounded=0;fontSize=14;fontColor=#000000;" vertex="1" parent="6wYLn8KQvJQrpvTA0No2-75">
          <mxGeometry x="5" y="45" width="190" height="30" as="geometry" />
        </mxCell>
        <mxCell id="6wYLn8KQvJQrpvTA0No2-95" style="edgeStyle=orthogonalEdgeStyle;rounded=0;orthogonalLoop=1;jettySize=auto;html=1;fontColor=#FF8000;" edge="1" parent="1" source="6wYLn8KQvJQrpvTA0No2-76" target="6wYLn8KQvJQrpvTA0No2-82">
          <mxGeometry relative="1" as="geometry" />
        </mxCell>
        <mxCell id="6wYLn8KQvJQrpvTA0No2-76" value="&lt;font color=&quot;#FFFF33&quot;&gt;Teams&lt;/font&gt;" style="ellipse;whiteSpace=wrap;html=1;fontSize=14;fontColor=#000000;fillColor=#CCCCCC;" vertex="1" parent="1">
          <mxGeometry x="310" y="1135" width="120" height="80" as="geometry" />
        </mxCell>
        <mxCell id="6wYLn8KQvJQrpvTA0No2-94" style="edgeStyle=orthogonalEdgeStyle;rounded=0;orthogonalLoop=1;jettySize=auto;html=1;fontColor=#FF8000;" edge="1" parent="1" source="6wYLn8KQvJQrpvTA0No2-77" target="6wYLn8KQvJQrpvTA0No2-76">
          <mxGeometry relative="1" as="geometry" />
        </mxCell>
        <mxCell id="6wYLn8KQvJQrpvTA0No2-77" value="Can have a" style="rhombus;whiteSpace=wrap;html=1;fontSize=14;fontColor=#000000;" vertex="1" parent="1">
          <mxGeometry x="330" y="780" width="80" height="80" as="geometry" />
        </mxCell>
        <mxCell id="6wYLn8KQvJQrpvTA0No2-100" style="edgeStyle=orthogonalEdgeStyle;rounded=0;orthogonalLoop=1;jettySize=auto;html=1;fontColor=#FF8000;entryX=0.708;entryY=0.801;entryDx=0;entryDy=0;entryPerimeter=0;" edge="1" parent="1" source="6wYLn8KQvJQrpvTA0No2-81" target="7pABPfw_jYTxYj795POy-36">
          <mxGeometry relative="1" as="geometry">
            <mxPoint x="780" y="870" as="targetPoint" />
            <Array as="points">
              <mxPoint x="910" y="1099" />
              <mxPoint x="870" y="1099" />
              <mxPoint x="870" y="900" />
              <mxPoint x="840" y="900" />
              <mxPoint x="840" y="890" />
              <mxPoint x="800" y="890" />
              <mxPoint x="800" y="900" />
              <mxPoint x="781" y="900" />
            </Array>
          </mxGeometry>
        </mxCell>
        <mxCell id="6wYLn8KQvJQrpvTA0No2-81" value="&lt;font color=&quot;#FF8000&quot;&gt;Team&lt;/font&gt;" style="ellipse;whiteSpace=wrap;html=1;fontSize=14;fontColor=#000000;fillColor=#33FFFF;" vertex="1" parent="1">
          <mxGeometry x="872" y="1147.5" width="96" height="55" as="geometry" />
        </mxCell>
        <mxCell id="6wYLn8KQvJQrpvTA0No2-96" style="edgeStyle=orthogonalEdgeStyle;rounded=0;orthogonalLoop=1;jettySize=auto;html=1;fontColor=#FF8000;" edge="1" parent="1" source="6wYLn8KQvJQrpvTA0No2-82" target="6wYLn8KQvJQrpvTA0No2-81">
          <mxGeometry relative="1" as="geometry" />
        </mxCell>
        <mxCell id="6wYLn8KQvJQrpvTA0No2-82" value="Will have one or more" style="rhombus;whiteSpace=wrap;html=1;fontSize=14;fontColor=#000000;" vertex="1" parent="1">
          <mxGeometry x="572.5" y="1120" width="120" height="110" as="geometry" />
        </mxCell>
        <mxCell id="6wYLn8KQvJQrpvTA0No2-99" style="edgeStyle=orthogonalEdgeStyle;rounded=0;orthogonalLoop=1;jettySize=auto;html=1;fontColor=#FF8000;" edge="1" parent="1" source="6wYLn8KQvJQrpvTA0No2-97" target="6wYLn8KQvJQrpvTA0No2-81">
          <mxGeometry relative="1" as="geometry" />
        </mxCell>
        <mxCell id="6wYLn8KQvJQrpvTA0No2-97" value="&lt;div&gt;Can be escalated &lt;br&gt;&lt;/div&gt;&lt;div&gt;to&lt;/div&gt;" style="rhombus;whiteSpace=wrap;html=1;fontSize=14;fontColor=#000000;" vertex="1" parent="1">
          <mxGeometry x="875" y="927.5" width="90" height="90" as="geometry" />
        </mxCell>
      </root>
    </mxGraphModel>
  </diagram>
</mxfile>
